<?xml version="1.0" encoding="UTF-8"?>
<!-- Sync manually with desktop-app/src/components/DefaultAvatars.tsx -->
<svg xmlns="http://www.w3.org/2000/svg" width="408" height="36" shape-rendering="crispEdges" style="background:#1a1a24">
  <title>Default preset avatars x12</title>
  <g transform="translate(1,2) scale(2)">
    <!-- developer -->
    <g transform="translate(0,0)">
      <rect width="16" height="16" fill="#C08820"/>
      <rect x="4" y="2" width="8" height="1" fill="#2A2A38"/>
      <rect x="3" y="3" width="10" height="9" fill="#2A2A38"/>
      <rect x="4" y="3" width="8" height="2" fill="#232332"/>
      <rect x="5" y="4" width="6" height="1" fill="#68687A"/>
      <rect x="5" y="5" width="6" height="5" fill="#F0B880"/>
      <rect x="4" y="5" width="1" height="1" fill="#D09060"/><rect x="11" y="5" width="1" height="1" fill="#D09060"/>
      <rect x="6" y="6" width="1" height="1" fill="#181820"/><rect x="9" y="6" width="1" height="1" fill="#181820"/>
      <rect x="5" y="7" width="2" height="1" fill="#5080E8"/><rect x="9" y="7" width="2" height="1" fill="#5080E8"/><rect x="7" y="7" width="1" height="1" fill="#5080E8"/>
      <rect x="7" y="9" width="2" height="1" fill="#805030"/>
      <rect x="5" y="10" width="6" height="1" fill="#D09060"/>
      <rect x="6" y="11" width="4" height="1" fill="#232332"/>
      <rect x="5" y="12" width="6" height="2" fill="#2A2A38"/>
      <rect x="6" y="12" width="4" height="1" fill="#EAEAE8"/>
    </g>
    <!-- product-manager -->
    <g transform="translate(17,0)">
      <rect width="16" height="16" fill="#7040B0"/>
      <rect x="4" y="2" width="8" height="1" fill="#2A2A38"/>
      <rect x="3" y="3" width="10" height="8" fill="#2A2A38"/>
      <rect x="4" y="3" width="8" height="2" fill="#805030"/>
      <rect x="5" y="5" width="6" height="5" fill="#F0B880"/>
      <rect x="6" y="6" width="1" height="1" fill="#181820"/><rect x="9" y="6" width="1" height="1" fill="#181820"/>
      <rect x="7" y="8" width="2" height="1" fill="#805030"/>
      <rect x="5" y="10" width="6" height="1" fill="#D09060"/>
      <rect x="6" y="11" width="4" height="1" fill="#5080E8"/>
      <rect x="5" y="12" width="6" height="2" fill="#2A2A38"/>
      <rect x="6" y="12" width="4" height="1" fill="#EAEAE8"/>
    </g>
    <!-- designer -->
    <g transform="translate(34,0)">
      <rect width="16" height="16" fill="#B84878"/>
      <rect x="3" y="1" width="10" height="1" fill="#2A2A38"/>
      <rect x="2" y="2" width="12" height="2" fill="#2A2A38"/>
      <rect x="3" y="2" width="10" height="2" fill="#9050E8"/>
      <rect x="3" y="4" width="10" height="8" fill="#2A2A38"/>
      <rect x="4" y="4" width="8" height="5" fill="#F0B880"/>
      <rect x="6" y="5" width="1" height="1" fill="#181820"/><rect x="9" y="5" width="1" height="1" fill="#181820"/>
      <rect x="5" y="6" width="2" height="1" fill="#9050E8"/><rect x="9" y="6" width="2" height="1" fill="#50D8A0"/>
      <rect x="7" y="8" width="2" height="1" fill="#E84848"/>
      <rect x="5" y="9" width="6" height="1" fill="#D09060"/>
      <rect x="6" y="10" width="4" height="1" fill="#232332"/>
      <rect x="5" y="11" width="6" height="2" fill="#2A2A38"/>
    </g>
    <!-- data-analyst -->
    <g transform="translate(51,0)">
      <rect width="16" height="16" fill="#38B880"/>
      <rect x="4" y="2" width="8" height="1" fill="#2A2A38"/>
      <rect x="3" y="3" width="10" height="9" fill="#2A2A38"/>
      <rect x="4" y="3" width="8" height="2" fill="#805030"/>
      <rect x="5" y="5" width="6" height="5" fill="#F0B880"/>
      <rect x="5" y="6" width="2" height="2" fill="#3048A8"/><rect x="9" y="6" width="2" height="2" fill="#3048A8"/><rect x="7" y="6" width="1" height="1" fill="#3048A8"/>
      <rect x="6" y="7" width="1" height="1" fill="#EAEAE8"/><rect x="9" y="7" width="1" height="1" fill="#EAEAE8"/>
      <rect x="6" y="9" width="4" height="1" fill="#805030"/>
      <rect x="12" y="7" width="1" height="1" fill="#5080E8"/><rect x="13" y="5" width="1" height="4" fill="#5080E8"/><rect x="14" y="6" width="1" height="2" fill="#E8A830"/>
      <rect x="5" y="11" width="6" height="1" fill="#232332"/>
      <rect x="4" y="12" width="8" height="2" fill="#2A2A38"/>
    </g>
    <!-- project-manager -->
    <g transform="translate(68,0)">
      <rect width="16" height="16" fill="#3048A8"/>
      <rect x="4" y="2" width="8" height="1" fill="#2A2A38"/>
      <rect x="3" y="3" width="10" height="8" fill="#2A2A38"/>
      <rect x="4" y="3" width="8" height="2" fill="#805030"/>
      <rect x="5" y="5" width="6" height="5" fill="#F0B880"/>
      <rect x="6" y="6" width="1" height="1" fill="#181820"/><rect x="9" y="6" width="1" height="1" fill="#181820"/>
      <rect x="7" y="8" width="2" height="1" fill="#805030"/>
      <rect x="5" y="10" width="6" height="1" fill="#EAEAE8"/>
      <rect x="7" y="10" width="2" height="2" fill="#5080E8"/>
      <rect x="4" y="11" width="8" height="2" fill="#353548"/>
      <rect x="5" y="12" width="6" height="1" fill="#353548"/>
    </g>
    <!-- marketer -->
    <g transform="translate(85,0)">
      <rect width="16" height="16" fill="#D07030"/>
      <rect x="4" y="1" width="8" height="1" fill="#2A2A38"/>
      <rect x="3" y="2" width="10" height="9" fill="#2A2A38"/>
      <rect x="4" y="2" width="8" height="2" fill="#805030"/>
      <rect x="5" y="4" width="6" height="5" fill="#F0B880"/>
      <rect x="6" y="5" width="1" height="1" fill="#181820"/><rect x="9" y="5" width="1" height="1" fill="#181820"/>
      <rect x="6" y="7" width="4" height="2" fill="#EAEAE8"/>
      <rect x="5" y="9" width="6" height="1" fill="#D09060"/>
      <rect x="11" y="6" width="1" height="3" fill="#A0A0AC"/><rect x="12" y="5" width="1" height="5" fill="#A0A0AC"/>
      <rect x="5" y="10" width="6" height="1" fill="#E8A830"/>
      <rect x="5" y="11" width="6" height="2" fill="#2A2A38"/>
    </g>
    <!-- accountant -->
    <g transform="translate(102,0)">
      <rect width="16" height="16" fill="#485870"/>
      <rect x="4" y="2" width="8" height="1" fill="#2A2A38"/>
      <rect x="3" y="3" width="10" height="8" fill="#2A2A38"/>
      <rect x="4" y="3" width="8" height="2" fill="#68687A"/>
      <rect x="5" y="5" width="6" height="5" fill="#F0B880"/>
      <rect x="5" y="6" width="2" height="2" fill="#EAEAE8"/><rect x="9" y="6" width="2" height="2" fill="#EAEAE8"/><rect x="7" y="6" width="1" height="1" fill="#68687A"/>
      <rect x="6" y="7" width="1" height="1" fill="#181820"/><rect x="9" y="7" width="1" height="1" fill="#181820"/>
      <rect x="7" y="9" width="2" height="1" fill="#805030"/>
      <rect x="5" y="10" width="6" height="1" fill="#EAEAE8"/>
      <rect x="4" y="11" width="8" height="2" fill="#353548"/>
      <rect x="6" y="11" width="4" height="2" fill="#353548"/>
    </g>
    <!-- hr -->
    <g transform="translate(119,0)">
      <rect width="16" height="16" fill="#C86080"/>
      <rect x="3" y="1" width="10" height="1" fill="#2A2A38"/>
      <rect x="2" y="2" width="12" height="10" fill="#2A2A38"/>
      <rect x="2" y="2" width="3" height="8" fill="#805030"/>
      <rect x="11" y="2" width="3" height="8" fill="#805030"/>
      <rect x="5" y="2" width="6" height="2" fill="#805030"/>
      <rect x="5" y="4" width="6" height="5" fill="#F0B880"/>
      <rect x="6" y="5" width="1" height="1" fill="#181820"/><rect x="9" y="5" width="1" height="1" fill="#181820"/>
      <rect x="7" y="7" width="2" height="1" fill="#E84848"/>
      <rect x="5" y="9" width="6" height="1" fill="#D09060"/>
      <rect x="6" y="10" width="4" height="1" fill="#38B880"/>
      <rect x="5" y="11" width="6" height="2" fill="#2A2A38"/>
    </g>
    <!-- legal -->
    <g transform="translate(136,0)">
      <rect width="16" height="16" fill="#503070"/>
      <rect x="4" y="2" width="8" height="1" fill="#2A2A38"/>
      <rect x="3" y="3" width="10" height="8" fill="#2A2A38"/>
      <rect x="4" y="3" width="8" height="2" fill="#68687A"/>
      <rect x="5" y="5" width="6" height="5" fill="#F0B880"/>
      <rect x="5" y="6" width="2" height="1" fill="#181820"/><rect x="9" y="6" width="2" height="1" fill="#181820"/>
      <rect x="6" y="7" width="4" height="1" fill="#181820"/>
      <rect x="7" y="9" width="2" height="1" fill="#805030"/>
      <rect x="5" y="10" width="6" height="1" fill="#EAEAE8"/>
      <rect x="7" y="10" width="2" height="2" fill="#E84848"/>
      <rect x="4" y="11" width="8" height="2" fill="#232332"/>
    </g>
    <!-- doctor -->
    <g transform="translate(153,0)">
      <rect width="16" height="16" fill="#6090C8"/>
      <rect x="4" y="1" width="8" height="1" fill="#2A2A38"/>
      <rect x="4" y="1" width="8" height="1" fill="#EAEAE8"/>
      <rect x="7" y="1" width="2" height="1" fill="#E84848"/>
      <rect x="3" y="2" width="10" height="9" fill="#2A2A38"/>
      <rect x="4" y="2" width="8" height="2" fill="#EAEAE8"/>
      <rect x="5" y="4" width="6" height="5" fill="#F0B880"/>
      <rect x="6" y="5" width="1" height="1" fill="#181820"/><rect x="9" y="5" width="1" height="1" fill="#181820"/>
      <rect x="7" y="7" width="2" height="1" fill="#D09060"/>
      <rect x="5" y="8" width="1" height="1" fill="#5080E8"/><rect x="10" y="8" width="1" height="1" fill="#5080E8"/>
      <rect x="6" y="9" width="4" height="1" fill="#5080E8"/>
      <rect x="5" y="10" width="6" height="2" fill="#EAEAE8"/>
      <rect x="4" y="11" width="8" height="2" fill="#2A2A38"/>
    </g>
    <!-- teacher -->
    <g transform="translate(170,0)">
      <rect width="16" height="16" fill="#886040"/>
      <rect x="4" y="2" width="8" height="1" fill="#2A2A38"/>
      <rect x="3" y="3" width="10" height="9" fill="#2A2A38"/>
      <rect x="4" y="3" width="8" height="2" fill="#805030"/>
      <rect x="7" y="4" width="2" height="1" fill="#F0B880"/>
      <rect x="5" y="5" width="6" height="5" fill="#F0B880"/>
      <rect x="5" y="6" width="2" height="1" fill="#68687A"/><rect x="9" y="6" width="2" height="1" fill="#68687A"/><rect x="7" y="6" width="1" height="1" fill="#68687A"/>
      <rect x="6" y="7" width="1" height="1" fill="#181820"/><rect x="9" y="7" width="1" height="1" fill="#181820"/>
      <rect x="7" y="9" width="2" height="1" fill="#EAEAE8"/>
      <rect x="5" y="10" width="6" height="1" fill="#805030"/>
      <rect x="5" y="11" width="6" height="2" fill="#2A2A38"/>
    </g>
    <!-- engineer -->
    <g transform="translate(187,0)">
      <rect width="16" height="16" fill="#E8A830"/>
      <rect x="3" y="0" width="10" height="1" fill="#2A2A38"/>
      <rect x="2" y="1" width="12" height="4" fill="#2A2A38"/>
      <rect x="3" y="1" width="10" height="3" fill="#C08820"/>
      <rect x="4" y="2" width="8" height="2" fill="#E8A830"/>
      <rect x="3" y="4" width="10" height="1" fill="#2A2A38"/>
      <rect x="3" y="5" width="10" height="7" fill="#2A2A38"/>
      <rect x="4" y="5" width="8" height="4" fill="#F0B880"/>
      <rect x="6" y="6" width="1" height="1" fill="#181820"/><rect x="9" y="6" width="1" height="1" fill="#181820"/>
      <rect x="5" y="7" width="6" height="1" fill="#D09060"/>
      <rect x="7" y="9" width="2" height="1" fill="#805030"/>
      <rect x="5" y="10" width="6" height="2" fill="#5080E8"/>
      <rect x="4" y="11" width="8" height="2" fill="#2A2A38"/>
      <rect x="5" y="12" width="6" height="1" fill="#3048A8"/>
    </g>
  </g>
    <text x="4" y="34" fill="#A0A0AC" font-family="system-ui,sans-serif" font-size="8">developer .. engineer (same order as picker)</text>
</svg>
